<?xml version="1.0" encoding="UTF-8"?>
<!DOCTYPE svg PUBLIC "-//W3C//DTD SVG 1.1//EN" "http://www.w3.org/Graphics/SVG/1.1/DTD/svg11.dtd">
<!-- Creator: CorelDRAW -->
<svg xmlns="http://www.w3.org/2000/svg" xml:space="preserve" width="8.5in" height="11in" style="shape-rendering:geometricPrecision; text-rendering:geometricPrecision; image-rendering:optimizeQuality; fill-rule:evenodd; clip-rule:evenodd"
viewBox="0 0 8.5 11"
 xmlns:xlink="http://www.w3.org/1999/xlink">
 <defs>
  <style type="text/css">
   <![CDATA[
    .fil0 {fill:#1F1A17;fill-rule:nonzero}
   ]]>
  </style>
 </defs>
 <g id="Layer_x0020_1">
  <metadata id="CorelCorpID_0Corel-Layer"/>
  <path class="fil0" d="M3.40911 2.16609l0.3365 0 0 0.126 -0.2345 0 -0.0293346 0.130835c0.00816929,-0.00216535 0.0161693,-0.00383465 0.024,-0.005 0.00783465,-0.00116535 0.0153346,-0.00183465 0.0225,-0.00183465 0.065,0 0.119169,0.0223346 0.162335,0.0666693 0.0431654,0.0445 0.0646654,0.101331 0.0646654,0.170665 0,0.07 -0.0238307,0.129 -0.0715,0.177 -0.0476654,0.048 -0.105665,0.072 -0.174165,0.072 -0.0611654,0 -0.113665,-0.0173346 -0.157665,-0.0521654 -0.0438346,-0.0348346 -0.0726693,-0.0825 -0.0863346,-0.143l0.1435 0c0.011,0.0223307 0.0256654,0.0393307 0.0436654,0.051 0.0181693,0.0115 0.038,0.0173307 0.0598346,0.0173307 0.0303346,0 0.056,-0.011 0.0771654,-0.0328307 0.0211693,-0.0216693 0.0316693,-0.0496693 0.0316693,-0.084 0,-0.0331693 -0.00983465,-0.0603346 -0.0295,-0.0816693 -0.0196693,-0.0213307 -0.0435,-0.032 -0.0715,-0.032 -0.015,0 -0.0296693,0.00366929 -0.0441693,0.0111693 -0.0145,0.0075 -0.0288307,0.0188307 -0.0428307,0.0336654l-0.111335 -0.0248346 0.087 -0.399z"/>
  <path class="fil0" d="M2.59228 2.34343l-0.131335 0c0.00683465,-0.053 0.0258346,-0.0956654 0.057,-0.128 0.0436693,-0.0448346 0.0985,-0.0673346 0.164669,-0.0673346 0.0588307,0 0.108331,0.0186693 0.148165,0.0561693 0.0398346,0.0375 0.0598346,0.0818307 0.0598346,0.133331 0,0.0318346 -0.00883465,0.061 -0.0261693,0.0873346 -0.0175,0.0263346 -0.0426654,0.0476654 -0.076,0.064 0.0436693,0.013 0.0778346,0.0356654 0.102335,0.0681654 0.0246654,0.0323346 0.0368346,0.0705 0.0368346,0.1145 0,0.0643346 -0.0236693,0.119 -0.0711693,0.163835 -0.0476654,0.0446654 -0.108165,0.067 -0.181665,0.067 -0.0696654,0 -0.1265,-0.021 -0.1705,-0.0631654 -0.0438346,-0.0421693 -0.068,-0.0995 -0.0721654,-0.172169l0.135165 0c0.00583465,0.0371693 0.0188346,0.0646693 0.0388346,0.0828346 0.02,0.018 0.0453307,0.027 0.076,0.027 0.0318307,0 0.0583307,-0.0101654 0.0793307,-0.0306654 0.021,-0.0205 0.0315,-0.0456693 0.0315,-0.0751693 0,-0.0326654 -0.0141654,-0.0601654 -0.0425,-0.0825 -0.0283307,-0.0225 -0.0691654,-0.0341654 -0.1225,-0.0346654l0 -0.117335c0.0328346,-0.0025 0.0573346,-0.00766535 0.0733346,-0.0153307 0.0161654,-0.00766929 0.0286654,-0.0181693 0.0376654,-0.0315 0.009,-0.0133346 0.0135,-0.0275 0.0135,-0.0425 0,-0.0195 -0.00683071,-0.0356693 -0.0205,-0.0485 -0.0136654,-0.0128346 -0.0316654,-0.0193346 -0.0538307,-0.0193346 -0.0195,0 -0.0371693,0.006 -0.0531693,0.0178346 -0.016,0.0118307 -0.0268307,0.0273307 -0.0326654,0.0461654z"/>
  <path class="fil0" d="M1.73678 2.39759l-0.133335 0c0.00366535,-0.0775 0.028,-0.138331 0.073,-0.182831 0.0451654,-0.0445 0.103,-0.0666693 0.173665,-0.0666693 0.0435,0 0.082,0.00916929 0.115335,0.0276693 0.0335,0.0183307 0.0601654,0.0448307 0.0801654,0.0795 0.02,0.0346654 0.03,0.07 0.03,0.105665 0,0.0426654 -0.0121654,0.0886654 -0.0363307,0.137835 -0.0243346,0.049 -0.0686693,0.107165 -0.133,0.174165l-0.0806693 0.085 0.255835 0 0 0.1265 -0.4975 0 0 -0.0655 0.222165 -0.2265c0.0536693,-0.0543346 0.0895,-0.098 0.107169,-0.131165 0.0176654,-0.033 0.0266654,-0.0628346 0.0266654,-0.0895 0,-0.0276693 -0.00933465,-0.0505 -0.0276654,-0.0686693 -0.0183346,-0.018 -0.042,-0.027 -0.071,-0.027 -0.0293346,0 -0.0536693,0.0108346 -0.0733346,0.0326693 -0.0195,0.0218307 -0.0298346,0.0513307 -0.0311654,0.0888307z"/>
 </g>
</svg>
