<?xml version="1.0" encoding="UTF-8" standalone="no"?>
<!-- Created with Inkscape (http://www.inkscape.org/) -->

<svg
   xmlns:dc="http://purl.org/dc/elements/1.1/"
   xmlns:cc="http://creativecommons.org/ns#"
   xmlns:rdf="http://www.w3.org/1999/02/22-rdf-syntax-ns#"
   xmlns:svg="http://www.w3.org/2000/svg"
   xmlns="http://www.w3.org/2000/svg"
   xmlns:sodipodi="http://sodipodi.sourceforge.net/DTD/sodipodi-0.dtd"
   xmlns:inkscape="http://www.inkscape.org/namespaces/inkscape"
   version="1.1"
   width="1100"
   height="825"
   id="svg2"
   inkscape:version="0.48.0 r9654"
   sodipodi:docname="hand.svg">
  <sodipodi:namedview
     pagecolor="#ffffff"
     bordercolor="#666666"
     borderopacity="1"
     objecttolerance="10"
     gridtolerance="10"
     guidetolerance="10"
     inkscape:pageopacity="0"
     inkscape:pageshadow="2"
     inkscape:window-width="1280"
     inkscape:window-height="744"
     id="namedview6"
     showgrid="false"
     inkscape:zoom="8.1733691"
     inkscape:cx="630.26136"
     inkscape:cy="377.46095"
     inkscape:window-x="-4"
     inkscape:window-y="-4"
     inkscape:window-maximized="1"
     inkscape:current-layer="svg2" />
  <metadata
     id="metadata8">
    <rdf:RDF>
      <cc:Work
         rdf:about="">
        <dc:format>image/svg+xml</dc:format>
        <dc:type
           rdf:resource="http://purl.org/dc/dcmitype/StillImage" />
        <dc:title />
      </cc:Work>
    </rdf:RDF>
  </metadata>
  <defs
     id="defs6" />
  <path
     d="m 1.3854289,744.03197 c 0.40505,-88.05453 0.45137,-107.38013 0.27024,-112.75817 0.2662402,-5.61848 2.1897749,-6.08617 8.7390401,-8.85952 14.558665,-8.59377 19.059749,-11.22734 28.09609,-16.23336 12.303222,-6.23645 8.221081,-4.35549 18.72421,-10.44172 10.564701,-6.3347 8.041395,-4.66643 12.50296,-6.47003 0.4509,-0.003 2.2867,-1.37944 4.07955,-3.05977 1.79285,-1.68034 5.61785,-4.13766 8.5,-5.46073 2.88215,-1.32307 6.63214,-3.65867 8.3333,-5.19022 3.77616,-3.39967 12.347011,-8.59254 13.422151,-8.59254 5.48624,-3.9648 5.27191,-3.86048 11.78833,-7.66927 10.04768,-5.79763 17.50641,-13.67974 25.14324,-19.34544 0.85429,-0.70205 3.27961,-2.15417 5.38961,-3.22693 3.18281,-1.61819 9.17699,-6.70385 24.74753,-20.99657 4.83417,-4.24648 5.87558,-4.52658 9.63547,-7.23191 3.73412,-3.73241 7.19676,-6.1987 9.78064,-6.96633 2.64338,-0.7853 6.02431,-3.23468 9.9687,-7.22199 3.28278,-3.31852 8.06877,-5.68762 11.80827,-7.24486 7.35963,-4.2537 7.78586,-3.09555 12.52329,-8.04018 2.58486,-2.71928 5.59974,-5.36977 6.69974,-5.88997 14.38973,-11.10841 15.28569,-11.1677 24.03613,-21.43442 3.91339,-2.77482 6.25544,-5.38876 7.99598,-8.92424 1.35385,-2.75 2.87552,-5.675 3.38149,-6.5 1.4487,-2.36212 3.86797,-8.24239 4.60082,-11.18276 0.36775,-1.47551 2.41564,-4.57509 4.55086,-6.88796 2.13523,-2.31286 3.63735,-4.60142 3.33805,-5.08569 -0.29929,-0.48427 1.2944,-3.63378 3.54155,-6.9989 2.24714,-3.36513 4.35421,-7.18816 4.68236,-8.49563 0.32815,-1.30747 1.89627,-3.76847 3.4847,-5.46889 1.58843,-1.70043 2.88806,-3.54183 2.88806,-4.09202 0,-0.55019 1.4471,-2.82745 3.21578,-5.06059 1.76867,-2.23314 3.3071,-4.68246 3.41871,-5.44294 0.23302,-1.58769 4.3667,-7.1949 7.93388,-10.76208 1.3374,-1.3374 2.43163,-3.29757 2.43163,-4.35593 0,-1.05837 1.575,-4.53985 3.5,-7.73663 1.925,-3.19678 3.5,-6.41713 3.5,-7.15633 0,-0.73921 0.63533,-2.34068 1.41185,-3.55883 0.77651,-1.21815 2.13689,-5.81482 3.02307,-10.21482 0.88617,-4.4 2.25609,-9.8 3.04426,-12 0.78817,-2.2 1.45279,-5.71708 1.47693,-7.81574 0.0241,-2.09866 0.50231,-4.6723 1.06259,-5.71921 0.56029,-1.0469 1.26514,-6.44535 1.56634,-11.99656 0.3012,-5.5512 1.2075,-11.96333 2.01399,-14.24917 1.1355,-3.21836 1.33968,-7.20913 0.90493,-17.68769 -0.30878,-7.4424 -0.95884,-15.55663 -1.44458,-18.03163 -0.48574,-2.475 -1.35876,-6.975 -1.94005,-10 -0.58129,-3.025 -1.15249,-8.65 -1.26934,-12.5 -0.11684,-3.85 -0.51984,-7.45 -0.89554,-8 -0.3757,-0.55 -2.13629,-8.65 -3.91241,-18 -1.77613,-9.35 -3.72587,-17.9 -4.33277,-19 -1.74527,-3.16329 -1.83944,-24.14708 -0.11479,-25.57841 5.27577,-8.0688 12.35059,-14.32117 19.0715,-18.89374 5.75889,-3.86532 11.00246,-7.03284 11.65237,-7.03893 0.64991,-0.006 4.33165,-2.84433 8.18165,-6.3072 3.85,-3.46286 8.44758,-6.8813 10.21684,-7.59651 10.24607,-6.28922 21.13021,-13.10334 29.28316,-18.199173 7.25338,-3.789181 12.5112,-4.844833 20.15395,-7.539989 6.70161,-2.552721 3.42602,-2.346054 20.37859,-2.346054 13.89322,-0.153424 20.3595,-0.324268 30.82241,-0.08157 4.2186,-2.181524 26.3863,-0.420223 28.89505,1.825223 1.48192,1.125962 2.95807,2.580059 3.94177,3.564242 2.25406,4.671729 3.12243,8.906691 3.59327,13.806821 0.38466,4.0032 0.004,5.33178 -2.62239,9.14887 -3.73847,5.43368 -17.04016,17.93015 -18.27388,17.16767 -5.25851,1.66033 -11.76315,2.74648 -17.75867,1.88431 -2.87928,-0.46152 -1.35022,-0.22384 -6.69532,-0.0678 -3.07245,0.0897 -16.13269,5.33444 -26.93478,6.40702 -6.72522,1.94252 -11.89225,4.28752 -16.48249,8.70627 -3.03463,2.9486 -8.71379,8.35849 -12.62035,12.02201 l -7.10284,6.66093 -0.10978,6.4421 c -1.50601,9.35181 3.7886,20.29494 3.82733,26.91891 0.007,3.35225 0.67619,8.57001 1.48813,11.59501 0.81194,3.025 1.4816,6.94054 1.48813,8.70121 0.0249,6.72591 2.83849,14.68135 6.20637,17.54879 1.77647,1.5125 3.94844,2.75 4.8266,2.75 5.25477,1.40838 7.25436,4.29143 9.70096,-0.75 0.9791,-2.0625 3.55651,-6.45 5.72759,-9.75 2.17107,-3.3 5.85343,-8.94093 8.18301,-12.5354 2.32958,-3.59447 5.16524,-7.37672 6.30147,-8.40499 5.51264,-6.16419 7.70487,-15.81385 14.20754,-21.14717 2.38558,-4.6917 5.01304,-8.64036 8.35833,-12.11541 2.91159,-2.69977 4.4118,-6.64013 6.5,-9.29703 4.01461,-6.9554 8.58478,-11.10467 11,-15.41703 5.80425,-5.15067 11.94083,-15.97536 16.34518,-20.43753 2.28275,-2.14453 9.32818,-6.14545 10.82185,-6.14545 0.40928,0 2.40193,-1.125 4.42811,-2.5 3.03635,-2.06052 4.87958,-2.5 10.48539,-2.5 8.98502,-0.39152 13.07941,0.0489 19.17627,-0.47925 4.53376,-0.40449 10.83901,-0.68515 14.01166,-0.62369 3.41041,0.0661 8.20072,-0.70761 11.71845,-1.89265 16.12792,-1.0068 23.62491,-3.25468 33.2894,-3.15715 20.01173,-0.071 45.17828,1.20127 45.57856,2.30419 0.4284,1.18036 4.22622,2.69467 9.64513,3.84581 2.2,0.46735 6.025,1.60006 8.5,2.51713 4.20136,1.55676 11.18368,3.16154 17,3.90721 2.42762,0.55781 5.05759,0.69689 7.15359,0.60574 2.08319,-0.0949 5.30687,0.72514 7.5,1.9078 5.83487,3.14649 9.95793,2.89903 19.1386,13.75954 4.33106,4.72209 0.35678,13.43166 -0.29662,14.94592 -2.76993,7.18791 -10.66674,12.94879 -15.72295,16.52132 -3.24416,2.31005 -13.49187,5.12964 -15.07882,4.14885 -0.52542,-0.32473 -2.58397,-0.76211 -4.57456,-0.97195 -9.09022,-0.95828 -12.71529,-1.64147 -13.93178,-2.62564 -0.7219,-0.58402 -4.89772,-1.19008 -9.2796,-1.3468 -4.38188,-0.15671 -8.42805,-0.56983 -8.99149,-0.91806 -0.56343,-0.34822 -4.45644,-0.59784 -8.65112,-0.55472 -4.19469,0.0431 -9.26185,-0.4115 -11.26036,-1.01027 -2.88525,-0.86444 -4.60591,-0.75858 -8.35422,0.51401 -2.59631,0.88147 -6.16734,1.62242 -7.93562,1.64656 -1.76828,0.0241 -5.01505,0.70721 -7.21505,1.51792 -2.2,0.81071 -9.4,2.4056 -16,3.5442 -6.6,1.1386 -13.35,2.66451 -15,3.3909 -1.65,0.72639 -4.35,1.60825 -6,1.95969 -1.65,0.35144 -4.125,0.89877 -5.5,1.21628 -3.25758,0.75225 -7.33086,4.60926 -11.14529,10.55353 -0.79584,2.8333 -3.70924,5.09271 -4.53432,7.38873 -1.15106,3.32963 -7.56212,10.13129 -15.06054,18.39712 -3.47183,4.43244 -5.7983,9.15852 -8.9408,12.72658 -10.33766,11.66472 -10.34809,12.16705 -13.6948,19.95327 -0.53103,6.39367 1.72715,5.65005 6.6055,7.82011 5.65915,2.01129 8.58849,-1.21664 12.05633,-3.47253 2.41248,-1.62816 7.17351,-4.38681 10.58006,-6.13032 3.40655,-1.7435 7.03252,-4.23637 8.05771,-5.53969 2.31346,-2.6825 5.97905,-3.26036 8.57615,-4.84359 2.2,-1.35502 4.92385,-2.47772 6.053,-2.49488 1.12915,-0.0172 3.82915,-1.30481 6,-2.86142 2.17085,-1.55662 5.522,-3.42945 7.447,-4.16184 1.925,-0.73239 4.4,-2.07292 5.5,-2.97895 2.96831,-1.1698 15.88886,-7.97826 16.50135,-8.029 5.31382,-2.94146 10.38977,-4.18919 11.95733,-6.07799 5.08014,-1.55273 6.86342,-3.84316 10.69384,-5.04025 5.36708,-3.24916 11.0945,-8.87194 15.05867,-10.07286 4.08289,-0.66 5.40468,-2.36557 9.84671,-2.59469 4.94891,-2.71028 11.36125,-0.48174 16.17888,0.26693 3.16977,0.39319 6.88822,1.27125 8.26322,1.95125 1.375,0.67999 4.81632,2.43588 7.64738,3.90198 2.83106,1.4661 5.78404,2.66563 6.56217,2.66563 6.86436,3.51987 10.31502,4.79132 17.48416,9 3.59867,2.06713 6.52321,4.11558 9.94666,4.56081 7.4974,0.93673 21.8874,7.81374 27.5982,13.18919 2.7738,1.62633 15.94412,7.64995 17.658,9.62536 2.87715,1.1025 3.1205,1.92945 5.5393,2.60668 3.88206,2.67402 14.05065,10.77993 15.8449,13.00841 0.7668,1.09475 5.8548,6.63554 11.3067,12.31287 13.9881,14.56651 15.25,16.14799 17.0018,21.30791 1.2877,3.79272 1.3571,5.4438 0.3973,9.44501 -0.59824,6.17477 -2.81952,12.43715 -8.8723,15.11441 -6.4187,2.49931 -15.173,3.17822 -18.1142,1.4048 -1.375,-0.82905 -4.525,-2.42556 -7,-3.5478 -2.475,-1.12225 -5.6945,-2.71257 -7.1543,-3.53405 -1.4599,-0.82148 -3.1889,-1.4936 -3.8423,-1.4936 -0.6534,0 -2.3321,-0.9 -3.7306,-2 -4.27478,-0.79046 -9.82397,-5.96387 -12.0517,-6.63009 -1.4966,-0.35954 -4.5211,-1.57756 -6.7211,-2.70671 -2.2,-1.12915 -5.125,-2.20398 -6.5,-2.38851 -1.375,-0.18452 -3.8047,-0.77182 -5.3993,-1.30509 -1.5946,-0.53328 -4.2296,-0.9696 -5.8556,-0.9696 -5.37057,-1.86366 -11.02868,-3.48386 -14.4627,-3.79776 -3.58545,-0.30332 -8.63275,-0.66255 -13.28247,-1.71127 -4.125,-0.93037 -10.6362,-2.33015 -14.46934,-3.11061 -3.83314,-0.78047 -7.41064,-1.86034 -7.95,-2.3997 -1.28782,-1.28782 -8.58066,-1.27138 -8.58066,0.0193 -7.3323,3.68934 -14.35573,9.25441 -20.92883,11.47636 -2.70449,0.89829 -5.43297,2.25466 -6.06331,3.01417 -2.17383,2.09824 -5.32314,1.80463 -7.55541,3.58641 -5.30911,1.89944 -10.13321,3.94747 -14.60682,7.05426 -4.91263,1.97333 -8.94554,5.36246 -14.06403,6.38195 -4.07316,1.49517 -6.52767,2.89104 -11.35857,5.06102 -5.70141,1.83058 -11.40874,5.20749 -15.01546,8.63916 -3.55421,3.3817 -4.10125,4.47814 -4.15959,8.33709 -0.0369,2.44381 0.34215,4.69626 0.84242,5.00545 0.50028,0.30919 0.9096,1.7854 0.9096,3.28046 0,1.7887 1.06111,3.64941 3.10283,5.44099 2.77586,2.43577 3.87821,2.72268 10.46104,2.72268 10.94064,-1.0356 27.53374,-1.9752 40.7678,-3.8603 0.64656,-0.5366 3.87394,-1.01194 7.17195,-1.05632 6.87109,-0.0925 5.51745,-0.92376 10.1341,-1.38777 10.21297,-2.56978 22.24115,-2.178 32.04186,-2.16057 13.49204,-0.0211 24.22896,2.42748 32.34474,2.46496 4.16643,-0.44029 6.19277,0.93628 11.28475,1.8281 3.657,9.8e-4 4.9245,0.84289 9.9484,5.42303 3.1667,2.88688 5.7542,5.72718 5.7501,6.31178 0,0.5846 1.3425,2.35629 2.9925,3.93709 1.671,1.60093 3,3.9178 3,5.23 0,1.2957 1.8,4.7399 4,7.65378 4.24213,8.67914 9.19855,15.03938 14,21.37469 4.02771,3.59257 6.15379,9.08419 9.1623,14.6225 2.70521,5.07666 3.9038,5.21093 4.7641,8.18615 0.7846,2.71308 1.38026,3.34142 3.2463,7.93288 2.02945,2.58727 2.11639,6.38479 3.67335,8.86163 2.39417,5.31117 5.09167,11.76997 5.34335,16.90116 0.50674,8.70579 2.23504,10.91419 1.86234,17.73841 1.14654,4.94993 0.0704,9.99543 -2.88694,12.38842 -3.3214,2.68763 -9.79893,4.99056 -17.17127,2.81128 -4.79052,-1.79671 -6.90743,-2.24162 -9.90546,-3.81668 -5.81555,-3.03173 -10.33392,-4.21725 -13.96887,-7.03817 -6.82198,-3.49302 -7.10652,-6.81446 -11.4879,-11.37256 -2.4094,-2.48062 -3.7452,-5.12316 -4.6632,-9.22498 -0.7075,-3.16168 -1.6281,-5.74851 -2.0457,-5.74851 -0.4177,0 -1.7345,-1.5778 -2.9263,-3.50623 -4.71018,-6.12469 -8.96408,-7.99952 -12.19769,-11.08752 -4.72029,-5.28706 -9.8416,-6.06724 -21.38928,-5.7462 -5.54994,0.1543 -10.81589,0.55878 -11.70211,0.89886 -0.88622,0.34007 -2.06791,0.33613 -2.62596,-0.009 -0.55806,-0.3449 -4.7421,0.0546 -9.29789,0.88772 -4.55578,0.83314 -9.65156,1.45964 -11.32396,1.39224 -1.67239,-0.0674 -4.59739,0.57146 -6.5,1.41971 -5.45852,2.43382 -14.43449,3.75042 -25.56704,3.75042 -5.68732,-0.87349 -10.61929,0.21772 -16.35328,1.55686 -9.07689,2.81421 -19.32853,7.46088 -27.80144,12.10941 -1.52691,1.1289 -3.8925,2.40526 -5.25686,2.83636 -9.1035,5.90409 -16.7554,9.86617 -23.39669,18.58657 -1.05382,1.87594 -3.08606,4.76907 -4.51608,6.42917 -1.92131,2.23044 -2.94676,5.10196 -3.92821,11 -1.0115,7.08393 -5.62042,13.87171 -3.68695,19.62239 0.3253,4.78477 3.09973,8.9119 4.62099,12.55315 5.72068,7.54645 9.56224,16.98658 14.74558,30.06463 1.33837,4.58077 5.81113,12.59105 12.71544,21.89317 5.59136,5.57358 14.15182,27.69263 17.69594,28.34829 0.9683,0 5.53466,4.69379 9.43543,9.69871 1.37116,1.75929 3.91972,3.64387 5.66346,4.18796 3.74419,1.16829 31.80819,1.49872 46.44591,0.54686 29.92218,-2.1076 51.00528,-21.71274 59.64728,-25.78297 3.96462,-2.52177 5.40733,-3.58906 9.90271,-5.06515 6.84169,-4.05348 23.25112,-5.0341 24.6964,-6.10519 6.95479,-0.56632 14.66208,-1.87802 21.87482,-0.7519 6.2196,1.10467 9.6548,1.22193 13.06575,3.90713 7.53222,3.55782 7.59382,5.17843 9.58688,8.09092 2.2243,2.89313 1.14955,8.51241 -2.05025,12.77363 -4.9145,6.54477 -17.4878,15.95541 -22.5572,20.5 -2.56462,2.29912 -16.57842,13.66208 -21.33342,21.17774 -1.9536,3.08776 -3.71524,7.63157 -5.27514,9.984 -1.9173,4.3143 -3.01719,6.03879 -6.33619,10.54481 -2.89903,2.18672 -3.52565,5.93782 -14.71845,16.58464 -3.9267,3.73516 -4.79414,5.55161 -7.50293,7.8816 -3.52128,3.1816 -13.39667,3.27909 -19.83288,4.41805 -0.79046,0.65603 -6.71009,0.92838 -8.71369,1.13393 -2.0036,0.20554 -4.11232,0.72721 -4.68604,1.15925 -1.68547,1.26926 -12.55368,3.3579 -19.04313,3.65969 -7.51699,0.34957 -9.43514,0.71345 -18.04732,3.42363 -12.67572,3.98895 -17.01003,5.52226 -23.24475,8.22313 -2.36063,1.02263 -6.41063,2.13238 -9,2.46612 -2.58936,0.33373 -5.60793,1.39581 -6.70793,2.36017 -1.1,0.96435 -3.0125,2.06042 -4.25,2.43569 -1.2375,0.37528 -2.25,1.10862 -2.25,1.62964 0,1.21869 -6.11927,4.96223 -7.11025,4.34977 -0.41335,-0.25546 -1.03421,-0.007 -1.37967,0.55183 -0.34546,0.55897 -1.83906,1.02314 -3.3191,1.03149 -1.48004,0.008 -4.71598,0.62208 -7.19098,1.36385 -3.76817,1.12933 -5.12037,1.13037 -8.31465,0.006 -2.09806,-0.73827 -4.12306,-1.26751 -4.5,-1.1761 -0.37694,0.0914 -2.48535,-0.13105 -4.68535,-0.49438 -2.2,-0.36332 -6.42109,-0.93557 -9.38019,-1.27166 -2.95911,-0.33609 -7.17478,-1.54647 -9.36817,-2.68973 -3.1058,-1.61884 -5.94326,-2.09799 -12.82709,-2.16609 -6.76667,-0.0669 -9.14221,-0.45793 -10.13183,-1.66758 -1.50536,-1.84007 -6.48935,-3.367 -16.29272,-4.99158 -3.85,-0.638 -8.28184,-1.54992 -9.84853,-2.02647 -1.56669,-0.47656 -12.81669,-0.8487 -25,-0.82698 -29.08471,0.0518 -30.32229,0.006 -33.4664,-1.22751 -1.47679,-0.57959 -7.63507,-1.2901 -13.68507,-1.57891 -7.80284,-0.37249 -12.14453,-1.06911 -14.93783,-2.39676 -2.16581,-1.02904 -5.63962,-1.87128 -7.71958,-1.87128 -2.07997,0 -5.48294,-0.97519 -7.56217,-2.1671 -3.452,-1.97883 -5.44209,-2.19411 -22.9077,-2.47809 -11.7235,-0.19062 -20.23925,-0.76906 -22,-1.49439 -3.00157,-1.46798 -6.1139,-0.47668 -8.87272,-0.19466 -2.2,0.22167 -5.30465,0.83757 -6.89922,1.36864 -1.59458,0.53108 -4.10581,0.9656 -5.58053,0.9656 -1.47471,0 -4.89506,1.12312 -7.60077,2.49581 -2.70571,1.3727 -6.1616,2.4977 -7.67974,2.5 -9.28115,6.27634 -11.3964,7.52584 -15.7492,9.17401 -0.8198,0.1816 -3.9263,2.01768 -6.90333,4.08018 -2.97704,2.0625 -6.02348,3.75 -6.76987,3.75 -0.7464,0 -3.03564,1.05926 -5.08721,2.35391 -2.05157,1.29465 -4.76609,2.68242 -6.03226,3.08393 -1.26616,0.40151 -3.70097,2.26725 -5.41067,4.14609 -2.79818,3.40699 -7.1635,4.96995 -10.21975,6.91607 -3.00926,1.925 -5.74389,3.5 -6.07697,3.5 -0.97191,0 -15.39292,11.06852 -16.29149,12.67417 -3.30015,2.72508 -6.82463,5.63986 -9.74211,7.82583 -4.01929,3.025 -7.75868,5.5 -8.30976,5.5 -3.30937,1.5706 -3.13895,2.37782 -8.73367,7 -0.87261,0 -4.39833,2.7 -7.83493,6 -3.43661,3.3 -6.67737,6 -7.20169,6 -0.52432,0 -2.646,2.025 -4.71484,4.5 -2.06884,2.475 -4.32994,4.5 -5.02467,4.5 -0.69473,0 -2.58483,1.38036 -4.20023,3.06746 -1.6154,1.68711 -5.18709,4.58386 -7.93709,6.43723 -2.75,1.85337 -8.69953,6.98204 -13.22118,11.39705 l -8.22117,8.02728 -69.041901,0.0437 -69.0419001,0.0437 0.37379,-81.25817 z"
     id="path2987"
     style="fill:none;stroke:#000000;stroke-opacity:1"
     inkscape:connector-curvature="0"
     sodipodi:nodetypes="ccccccssscccsccssccccsssscsssssssssssssccssssssssscccscccccccscccsccscccsssccssccccccssccccccssccscccsssssssscssssscccccccscccsscccccccsscccccccscccsscsccsssccssscccccccscsssccsccccccssccccccccscccccsccsscssccccccsccccccsscccccccsssccsccssssssssssccsccsssssssscscsssccsssccssssccsccccsssssssccccc" />
</svg>
