<?xml version="1.0" encoding="UTF-8"?>
<!DOCTYPE svg PUBLIC "-//W3C//DTD SVG 1.1//EN" "http://www.w3.org/Graphics/SVG/1.1/DTD/svg11.dtd">
<!-- Creator: CorelDRAW -->
<svg xmlns="http://www.w3.org/2000/svg" xml:space="preserve" width="8.5in" height="11in" style="shape-rendering:geometricPrecision; text-rendering:geometricPrecision; image-rendering:optimizeQuality; fill-rule:evenodd; clip-rule:evenodd"
viewBox="0 0 8.5 11"
 xmlns:xlink="http://www.w3.org/1999/xlink">
 <defs>
  <style type="text/css">
   <![CDATA[
    .str0 {stroke:#1F1A17;stroke-width:0.003}
    .fil0 {fill:none}
   ]]>
  </style>
 </defs>
 <g id="Layer_x0020_1">
  <metadata id="CorelCorpID_0Corel-Layer"/>
  <g id="_24613048">
   <path id="_40973800" class="fil0 str0" d="M1.25094 4.26606c0.0547795,0 0.099185,-0.0416299 0.099185,-0.0929843 0,-0.0513543 -0.0444055,-0.0929843 -0.099185,-0.0929843 -0.109555,0 -0.198366,0.0832598 -0.198366,0.185969 0,0.102709 0.088811,0.185969 0.198366,0.185969 0.164335,0 0.297551,-0.12489 0.297551,-0.278953 0,-0.154063 -0.133217,-0.278957 -0.297551,-0.278957 -0.21911,0 -0.396732,0.166524 -0.396732,0.371941 0,0.205417 0.177622,0.371937 0.396732,0.371937 0.27389,0 0.495921,-0.208154 0.495921,-0.464921 0,-0.256772 -0.222031,-0.464925 -0.495921,-0.464925 -0.328665,0 -0.595102,0.249783 -0.595102,0.557909 0,0.308126 0.266437,0.557909 0.595102,0.557909 0.383445,0 0.694287,-0.291417 0.694287,-0.650894 0,-0.35948 -0.310843,-0.650894 -0.694287,-0.650894 -0.43822,0 -0.793469,0.333047 -0.793469,0.743878 0,0.410831 0.355248,0.743878 0.793469,0.743878"/>
   <path id="_41820936" class="fil0 str0" d="M1.25094 5.75381c-0.0547795,0 -0.099185,0.0416299 -0.099185,0.0929843 0,0.0513543 0.0444055,0.0929843 0.099185,0.0929843 0.109555,0 0.198366,-0.0832598 0.198366,-0.185969 0,-0.102709 -0.088811,-0.185969 -0.198366,-0.185969 -0.164335,0 -0.297551,0.12489 -0.297551,0.278953 0,0.154063 0.133217,0.278957 0.297551,0.278957 0.21911,0 0.396732,-0.166524 0.396732,-0.371941 0,-0.205417 -0.177622,-0.371937 -0.396732,-0.371937 -0.27389,0 -0.495921,0.208154 -0.495921,0.464921 0,0.256772 0.222031,0.464925 0.495921,0.464925 0.328665,0 0.595102,-0.249783 0.595102,-0.557909 0,-0.308126 -0.266437,-0.557909 -0.595102,-0.557909 -0.383445,0 -0.694287,0.291417 -0.694287,0.650894 0,0.35948 0.310843,0.650894 0.694287,0.650894 0.43822,0 0.793469,-0.333047 0.793469,-0.743878 0,-0.410831 -0.355248,-0.743878 -0.793469,-0.743878"/>
  </g>
  <g id="_41279856">
   <path id="_42192656" class="fil0 str0" d="M4.42992 6.04124c0,0.0681457 -0.0483386,0.12339 -0.107965,0.12339 -0.059626,0 -0.107965,-0.0552441 -0.107965,-0.12339 0,-0.136291 0.0966732,-0.246776 0.215929,-0.246776 0.119256,0 0.215929,0.110484 0.215929,0.246776 0,0.204437 -0.145012,0.370165 -0.323894,0.370165 -0.178882,0 -0.323894,-0.165728 -0.323894,-0.370165 0,-0.272579 0.19335,-0.493551 0.431858,-0.493551 0.238508,0 0.431858,0.220972 0.431858,0.493551"/>
   <line id="_40847328" class="fil0 str0" x1="4.86178" y1="6.04124" x2="4.85663" y2= "6.27198" />
   <path id="_24603984" class="fil0 str0" d="M5.01858 6.27198c0,-0.059626 0.0362559,-0.107965 0.0809764,-0.107965 0.0447205,0 0.0809724,0.0483386 0.0809724,0.107965 0,0.119256 -0.0725079,0.215929 -0.161949,0.215929 -0.089437,0 -0.161945,-0.0966732 -0.161945,-0.215929"/>
  </g>
  <g id="_41274472">
   <line id="_40328800" class="fil0 str0" x1="2.28405" y1="6.12752" x2="2.28661" y2= "7.38379" />
   <path id="_41274376" class="fil0 str0" d="M2.71591 6.12752c0,0.0681457 0.0483386,0.12339 0.107965,0.12339 0.059626,0 0.107965,-0.0552441 0.107965,-0.12339 0,-0.136291 -0.0966732,-0.246776 -0.215929,-0.246776 -0.119256,0 -0.215929,0.110484 -0.215929,0.246776 0,0.204437 0.145012,0.370165 0.323894,0.370165 0.178882,0 0.323894,-0.165728 0.323894,-0.370165 0,-0.272579 -0.19335,-0.493551 -0.431858,-0.493551 -0.238508,0 -0.431858,0.220972 -0.431858,0.493551"/>
   <path id="_42479560" class="fil0 str0" d="M2.12467 7.38379c0,-0.059626 -0.0362559,-0.107965 -0.0809764,-0.107965 -0.0447205,0 -0.0809724,0.0483386 -0.0809724,0.107965 0,0.119256 0.0725079,0.215929 0.161949,0.215929 0.089437,0 0.161945,-0.0966732 0.161945,-0.215929"/>
  </g>
  <path class="fil0 str0" d="M3.3386 4.97235c0,-0.033126 -0.0235,-0.0599803 -0.0524843,-0.0599803 -0.0289843,0 -0.0524843,0.0268543 -0.0524843,0.0599803 0,0.066252 0.0469961,0.119961 0.104969,0.119961 0.0579685,0 0.104965,-0.0537087 0.104965,-0.119961 0,-0.099378 -0.0704921,-0.179941 -0.157449,-0.179941 -0.0869567,0 -0.157449,0.080563 -0.157449,0.179941 0,0.132504 0.0939882,0.239921 0.209933,0.239921 0.115941,0 0.209929,-0.107417 0.209929,-0.239921"/>
  <g id="_41408312">
   <path id="_41308144" class="fil0 str0" d="M3.33969 5.56192c0,0.059626 -0.0362559,0.107965 -0.0809764,0.107965 -0.0447205,0 -0.0809724,-0.0483386 -0.0809724,-0.107965 0,-0.119256 0.0725079,-0.215929 0.161949,-0.215929 0.089437,0 0.161945,0.0966732 0.161945,0.215929"/>
   <path id="_41174608" class="fil0 str0" d="M3.66358 6.28168c0,-0.059626 0.0362559,-0.107965 0.0809764,-0.107965 0.0447205,0 0.0809724,0.0483386 0.0809724,0.107965 0,0.119256 -0.0725079,0.215929 -0.161949,0.215929 -0.089437,0 -0.161945,-0.0966732 -0.161945,-0.215929"/>
   <line id="_41274512" class="fil0 str0" x1="3.50164" y1="5.56192" x2="3.50164" y2= "6.28168" />
  </g>
  <g id="_41822360">
   <path id="_41174440" class="fil0 str0" d="M5.86304 4.41403c0,0.059626 0.0362559,0.107965 0.0809764,0.107965 0.0447205,0 0.0809724,-0.0483386 0.0809724,-0.107965 0,-0.119256 -0.0725079,-0.215929 -0.161949,-0.215929 -0.089437,0 -0.161945,0.0966732 -0.161945,0.215929"/>
   <path id="_41340912" class="fil0 str0" d="M5.54515 6.27342c0,-0.059626 -0.0362559,-0.107965 -0.0809764,-0.107965 -0.0447205,0 -0.0809724,0.0483386 -0.0809724,0.107965 0,0.119256 0.0725079,0.215929 0.161949,0.215929 0.089437,0 0.161945,-0.0966732 0.161945,-0.215929"/>
   <line id="_24715648" class="fil0 str0" x1="5.70709" y1="6.27342" x2="5.70109" y2= "4.41403" />
  </g>
 </g>
</svg>
